<?xml version="1.0" encoding="UTF-8" standalone="no"?>
<!DOCTYPE svg PUBLIC "-//W3C//DTD SVG 1.1//EN" "http://www.w3.org/Graphics/SVG/1.1/DTD/svg11.dtd">
<svg width="800.00" height="600.00" viewBox="0.00 0.00 800.00 600.00" xmlns="http://www.w3.org/2000/svg" xmlns:xlink="http://www.w3.org/1999/xlink">
<title>Blog Icon</title>
<description>Icon representing a comment or blog page. Consists of speech box containing abstract text.</description>
<g stroke-linecap="round" id="Layer_2">
<path d="M580.54,529.79 Q665.23,556.20 751.33,581.76 Q708.55,519.01 665.58,456.88 Q663.52,456.58 663.03,453.72 Q662.32,452.93 661.14,452.46 Q659.44,449.77 660.55,446.29 Q657.31,446.47 657.09,444.93 Q656.86,443.39 657.23,441.82 Q662.12,391.08 658.73,292.47 Q652.41,109.22 626.26,84.99 Q600.11,60.76 337.39,59.21 Q74.68,57.66 54.24,84.68 Q33.80,111.70 34.53,306.39 Q35.26,501.07 60.34,520.54 Q85.43,540.01 350.58,538.61 Q500.20,537.83 573.24,527.70 Q580.99,529.54 581.16,529.63" fill="none" stroke="rgb(0, 0, 0)" stroke-width="35.30" stroke-opacity="1.00" stroke-linejoin="round"/>
<path d="M103.79,284.44 C103.79,284.44 136.50,225.00 136.50,225.00 C136.50,225.00 168.51,283.44 168.51,283.44 C168.51,283.44 201.50,224.00 201.50,224.00 C201.50,224.00 233.51,282.44 233.51,282.44 C233.51,282.44 267.50,223.00 267.50,223.00 C267.50,223.00 299.51,281.44 299.51,281.44 C299.51,281.44 332.50,224.00 332.50,224.00 C332.50,224.00 364.18,281.83 364.18,281.83 C364.18,281.83 397.50,222.00 397.50,222.00 C397.50,222.00 429.51,280.44 429.51,280.44 C429.51,280.44 461.50,223.00 461.50,223.00 C461.50,223.00 493.51,281.44 493.51,281.44 C493.51,281.44 525.50,224.00 525.50,224.00 C525.50,224.00 557.51,282.44 557.51,282.44" fill="none" stroke="rgb(0, 0, 0)" stroke-width="10.00" stroke-opacity="1.00" stroke-linejoin="round"/>
<path d="M105.79,371.44 C105.79,371.44 138.50,312.00 138.50,312.00 C138.50,312.00 170.51,370.44 170.51,370.44 C170.51,370.44 203.50,311.00 203.50,311.00 C203.50,311.00 235.51,369.44 235.51,369.44 C235.51,369.44 269.50,310.00 269.50,310.00 C269.50,310.00 301.51,368.44 301.51,368.44 C301.51,368.44 334.50,311.00 334.50,311.00 C334.50,311.00 366.18,368.83 366.18,368.83 C366.18,368.83 399.50,309.00 399.50,309.00 C399.50,309.00 431.51,367.44 431.51,367.44 C431.51,367.44 463.50,310.00 463.50,310.00 C463.50,310.00 495.51,368.44 495.51,368.44 C495.51,368.44 527.50,311.00 527.50,311.00 C527.50,311.00 559.51,369.44 559.51,369.44" fill="none" stroke="rgb(0, 0, 0)" stroke-width="10.00" stroke-opacity="1.00" stroke-linejoin="round"/>
<path d="M100.79,196.44 C100.79,196.44 133.50,137.00 133.50,137.00 C133.50,137.00 165.51,195.44 165.51,195.44 C165.51,195.44 198.50,136.00 198.50,136.00 C198.50,136.00 230.51,194.44 230.51,194.44 C230.51,194.44 264.50,135.00 264.50,135.00 C264.50,135.00 296.51,193.44 296.51,193.44 C296.51,193.44 329.50,136.00 329.50,136.00 C329.50,136.00 361.18,193.83 361.18,193.83 C361.18,193.83 394.50,134.00 394.50,134.00 C394.50,134.00 426.51,192.44 426.51,192.44 C426.51,192.44 458.50,135.00 458.50,135.00 C458.50,135.00 490.51,193.44 490.51,193.44 C490.51,193.44 522.50,136.00 522.50,136.00 C522.50,136.00 554.51,194.44 554.51,194.44" fill="none" stroke="rgb(0, 0, 0)" stroke-width="10.00" stroke-opacity="1.00" stroke-linejoin="round"/>
<path d="M103.79,464.44 C103.79,464.44 136.50,405.00 136.50,405.00 C136.50,405.00 168.51,463.44 168.51,463.44 C168.51,463.44 201.50,404.00 201.50,404.00 C201.50,404.00 233.51,462.44 233.51,462.44 C233.51,462.44 267.50,403.00 267.50,403.00 C267.50,403.00 299.51,461.44 299.51,461.44 C299.51,461.44 332.50,404.00 332.50,404.00 C332.50,404.00 364.18,461.83 364.18,461.83 C364.18,461.83 397.50,402.00 397.50,402.00 C397.50,402.00 429.51,460.44 429.51,460.44 C429.51,460.44 461.50,403.00 461.50,403.00 C461.50,403.00 493.51,461.44 493.51,461.44 C493.51,461.44 525.50,404.00 525.50,404.00 C525.50,404.00 557.51,462.44 557.51,462.44" fill="none" stroke="rgb(0, 0, 0)" stroke-width="10.00" stroke-opacity="1.00" stroke-linejoin="round"/>
</g>
</svg>
