<?xml version="1.0" encoding="UTF-8" standalone="no"?>
<!DOCTYPE svg PUBLIC "-//W3C//DTD SVG 1.1//EN" "http://www.w3.org/Graphics/SVG/1.1/DTD/svg11.dtd">
<svg width="700.00" height="600.00" viewBox="0.00 0.00 700.00 600.00" xmlns="http://www.w3.org/2000/svg" xmlns:xlink="http://www.w3.org/1999/xlink">
<title>Shuttle Icon</title>
<description>Shuttle icon representing lift-off. Consists of abstract space rocket with rocket exhaust.</description>
<g stroke-linecap="round" transform="translate(13.00, -42.00)" id="Layer_2">
<path d="M319.85,462.46 L563.67,227.80" fill="none" stroke="rgb(0, 0, 0)" stroke-width="24.00" stroke-opacity="1.00" stroke-linejoin="round"/>
<path d="M208.85,358.46 L452.67,123.80" fill="none" stroke="rgb(0, 0, 0)" stroke-width="24.00" stroke-opacity="1.00" stroke-linejoin="round"/>
<path d="M450.00,125.00 L601.00,72.00 L565.00,228.00" fill="none" stroke="rgb(0, 0, 0)" stroke-width="24.00" stroke-opacity="1.00" stroke-linejoin="miter"/>
<path d="M209.00,356.00 L318.00,464.00" fill="none" stroke="rgb(0, 0, 0)" stroke-width="24.00" stroke-opacity="1.00" stroke-linejoin="miter"/>
<path d="M230.00,390.00 L155.00,407.00 L262.00,515.00 L284.00,428.00" fill="none" stroke="rgb(0, 0, 0)" stroke-width="24.00" stroke-opacity="1.00" stroke-linejoin="miter"/>
<path d="M294.00,272.00 L167.00,258.00 L62.00,341.00 L170.00,329.00 L208.00,356.00" fill="none" stroke="rgb(0, 0, 0)" stroke-width="24.00" stroke-opacity="1.00" stroke-linejoin="miter"/>
<path d="M404.63,381.25 L415.60,500.75 L332.57,605.73 L346.60,492.73 L316.61,460.23" fill="none" stroke="rgb(0, 0, 0)" stroke-width="24.00" stroke-opacity="1.00" stroke-linejoin="miter"/>
<path d="M172.63,560.30 C171.27,560.76 165.64,561.85 163.43,562.04 C160.19,562.35 153.69,564.88 148.56,567.90 C143.37,570.98 126.14,582.81 118.18,588.66 C101.09,601.64 92.76,607.70 87.85,610.14 C85.45,611.31 82.16,611.96 81.36,611.43 C80.54,610.81 80.63,607.65 81.54,605.14 C83.48,599.91 94.61,581.68 100.42,572.28 C106.93,561.03 115.45,544.51 117.97,537.81 C119.86,532.72 120.91,527.13 121.21,522.35 C121.38,519.80 122.39,512.14 122.60,511.24 C123.49,507.41 126.13,500.58 127.75,497.85 C129.60,494.82 133.23,490.75 136.18,488.42 C139.05,486.18 145.34,482.63 148.11,481.73 C150.78,480.89 157.98,480.12 161.39,480.31 C165.14,480.56 170.89,482.05 174.37,483.67 C177.53,485.18 183.67,489.35 185.88,491.50 C188.06,493.66 192.48,499.83 194.15,503.06 C195.95,506.62 197.82,512.60 198.36,516.56 C198.83,520.17 198.70,527.83 198.14,530.78 C197.53,533.80 194.75,540.81 192.95,543.95 C191.01,547.27 187.31,551.57 184.45,553.83 C181.93,555.79 175.58,559.25 172.63,560.30 Z" fill="none" stroke="rgb(0, 0, 0)" stroke-width="18.00" stroke-opacity="1.00" stroke-linejoin="round"/>
<path d="M410.37,251.76 C408.85,248.92 406.41,241.43 405.81,237.72 C405.18,233.65 405.35,227.20 406.19,223.16 C406.99,219.49 409.81,212.14 411.49,209.39 C413.18,206.64 418.45,200.79 421.36,198.42 C424.57,195.84 430.25,192.76 434.16,191.47 C437.73,190.32 445.51,189.09 448.74,189.16 C451.96,189.26 459.67,190.90 463.17,192.23 C467.02,193.72 472.52,197.09 475.59,199.84 C478.37,202.36 483.32,208.48 484.88,211.31 C486.40,214.15 488.84,221.64 489.44,225.35 C490.07,229.42 489.90,235.87 489.06,239.91 C488.26,243.58 485.44,250.93 483.76,253.68 C482.07,256.43 476.80,262.28 473.89,264.65 C470.68,267.23 465.01,270.31 461.09,271.60 C457.52,272.75 449.74,273.98 446.51,273.91 C443.29,273.81 435.59,272.17 432.08,270.84 C428.23,269.35 422.73,265.98 419.66,263.23 C416.88,260.71 411.93,254.59 410.37,251.76 Z" fill="none" stroke="rgb(0, 0, 0)" stroke-width="18.00" stroke-opacity="1.00" stroke-linejoin="round"/>
</g>
</svg>
